# xmcd
#
# Track frame offsets: 
#        150
#        9956
#        27640
#        41948
#        56555
#        69108
#        84994
#        100269
#        121387
#        137833
#
# Disc length: 2090 seconds
#
# Revision: 1
# Processed by: cddbd v1.5.2PL0 Copyright (c) Steve Scherf et al.
# Submitted via: ExactAudioCopy v0.90b4
#
DISCID=8008280a
DTITLE=Christiane Rösinger - Songs of L. and Hate
DYEAR=2010
DGENRE=Indie
TTITLE0=Ich muss immer an dich denken
TTITLE1=Es geht sich nicht aus
TTITLE2=Desillusion
TTITLE3=Berlin
TTITLE4=Verloren
TTITLE5=Sinnlos
TTITLE6=Hauptsache raus
TTITLE7=These Days
TTITLE8=Es ist so arg
TTITLE9=Kleines Lied zum Abschied
EXTD=
EXTT0=
EXTT1=
EXTT2=
EXTT3=
EXTT4=
EXTT5=
EXTT6=
EXTT7=
EXTT8=
EXTT9=
PLAYORDER=
